<svg width="800" height="800" viewBox="0 0 800 800" fill="none" xmlns="http://www.w3.org/2000/svg">
<g clip-path="url(#clip0_591_337)" filter="url(#filter0_d_591_337)">
<path d="M400 33.3333C327.48 33.3333 256.589 54.8379 196.291 95.1278C135.993 135.418 88.9963 192.683 61.2442 259.683C33.4921 326.682 26.2308 400.407 40.3788 471.533C54.5267 542.659 89.4483 607.993 140.728 659.272C192.007 710.552 257.341 745.473 328.467 759.621C399.593 773.769 473.318 766.508 540.317 738.756C607.317 711.004 664.582 664.007 704.872 603.709C745.162 543.411 766.667 472.52 766.667 400C766.887 351.787 757.554 304.008 739.205 259.422C720.857 214.836 693.857 174.328 659.765 140.235C625.672 106.143 585.164 79.1433 540.578 60.7947C495.992 42.4461 448.213 33.1126 400 33.3333ZM400 700C340.666 700 282.664 682.405 233.329 649.441C183.994 616.476 145.542 569.623 122.836 514.805C100.13 459.987 94.1889 399.667 105.764 341.473C117.34 283.279 145.912 229.824 187.868 187.868C229.824 145.912 283.279 117.34 341.473 105.764C399.667 94.1888 459.987 100.13 514.805 122.836C569.623 145.542 616.477 183.994 649.441 233.329C682.405 282.664 700 340.666 700 400C699.562 479.43 667.815 555.482 611.648 611.648C555.482 667.815 479.43 699.562 400 700Z" fill="#AD2828"/>
<path d="M350 283.333C350 264.924 335.076 250 316.667 250C298.257 250 283.333 264.924 283.333 283.333V516.667C283.333 535.076 298.257 550 316.667 550C335.076 550 350 535.076 350 516.667V283.333Z" fill="#AD2828"/>
<path d="M516.667 283.333C516.667 264.924 501.743 250 483.333 250C464.924 250 450 264.924 450 283.333V516.667C450 535.076 464.924 550 483.333 550C501.743 550 516.667 535.076 516.667 516.667V283.333Z" fill="#AD2828"/>
</g>
<defs>
<filter id="filter0_d_591_337" x="-4" y="0" width="808" height="808" filterUnits="userSpaceOnUse" color-interpolation-filters="sRGB">
<feFlood flood-opacity="0" result="BackgroundImageFix"/>
<feColorMatrix in="SourceAlpha" type="matrix" values="0 0 0 0 0 0 0 0 0 0 0 0 0 0 0 0 0 0 127 0" result="hardAlpha"/>
<feOffset dy="4"/>
<feGaussianBlur stdDeviation="2"/>
<feComposite in2="hardAlpha" operator="out"/>
<feColorMatrix type="matrix" values="0 0 0 0 0 0 0 0 0 0 0 0 0 0 0 0 0 0 0.25 0"/>
<feBlend mode="normal" in2="BackgroundImageFix" result="effect1_dropShadow_591_337"/>
<feBlend mode="normal" in="SourceGraphic" in2="effect1_dropShadow_591_337" result="shape"/>
</filter>
<clipPath id="clip0_591_337">
<rect width="800" height="800" fill="white"/>
</clipPath>
</defs>
</svg>
