<svg width="131" height="131" viewBox="0 0 131 131" fill="none" xmlns="http://www.w3.org/2000/svg">
<path d="M65.4997 130.815C101.167 130.815 130.815 101.231 130.815 65.5C130.815 29.8327 101.103 0.18457 65.4358 0.18457C29.7043 0.18457 0.18457 29.8327 0.18457 65.5C0.18457 101.231 29.7685 130.815 65.4997 130.815ZM65.4997 119.929C35.2754 119.929 11.1342 95.7243 11.1342 65.5C11.1342 35.3396 35.2115 11.0705 65.4358 11.0705C95.5959 11.0705 119.865 35.3396 119.929 65.5C119.994 95.7243 95.6601 119.929 65.4997 119.929ZM54.2296 89.0647L88.4883 68.8299C90.9854 67.2931 90.9215 63.7711 88.4883 62.3624L54.2296 41.9992C51.6043 40.4624 48.1462 41.679 48.1462 44.5606V86.5033C48.1462 89.4489 51.412 90.7297 54.2296 89.0647Z" fill="#6F402A" stroke="#6F402A" stroke-width="0.00153"/>
</svg>
