<svg width="22" height="22" viewBox="0 0 22 22" fill="none" xmlns="http://www.w3.org/2000/svg">
<g clip-path="url(#clip0_183_116)">
<path d="M10.75 0C4.81303 0 0 4.81303 0 10.75C0 16.687 4.81303 21.5 10.75 21.5C16.687 21.5 21.5 16.687 21.5 10.75C21.4934 4.81565 16.6843 0.00656128 10.75 0ZM10.75 20.4249C5.40666 20.4249 1.07507 16.0933 1.07507 10.75C1.07507 5.40666 5.40666 1.07507 10.75 1.07507C16.0933 1.07507 20.4249 5.40666 20.4249 10.75C20.4189 16.0907 16.0907 20.4189 10.75 20.4249Z" fill="black"/>
<path d="M11.8251 16.125C11.8251 16.7186 11.3436 17.1999 10.75 17.1999C10.1564 17.1999 9.67493 16.7186 9.67493 16.125C9.67493 15.5312 10.1564 15.0499 10.75 15.0499C11.3436 15.0499 11.8251 15.5312 11.8251 16.125Z" fill="black"/>
<path d="M10.75 4.30011C8.96976 4.30191 7.52693 5.74474 7.52496 7.52498C7.52496 7.82188 7.7656 8.06251 8.0625 8.06251C8.35923 8.06251 8.59986 7.82188 8.59986 7.52498C8.59986 6.33772 9.56257 5.37501 10.75 5.37501C11.9373 5.37501 12.9 6.33772 12.9 7.52498C12.9 8.72865 12.2617 9.31342 11.5861 9.93231C10.9421 10.5222 10.2125 11.1904 10.2125 12.3626C10.2125 12.6593 10.4531 12.9 10.7498 12.9C11.0467 12.9 11.2874 12.6593 11.2874 12.3626C11.2874 11.696 11.6574 11.3243 12.3119 10.7249C13.0532 10.046 13.9749 9.20155 13.9749 7.52498C13.9731 5.74474 12.5302 4.30191 10.75 4.30011Z" fill="black"/>
</g>
<defs>
<clipPath id="clip0_183_116">
<rect width="21.5" height="21.5" fill="white"/>
</clipPath>
</defs>
</svg>
