<svg width="700" height="700" viewBox="0 0 700 700" fill="none" xmlns="http://www.w3.org/2000/svg">
<path d="M350 0C442.826 0 531.85 36.8749 597.487 102.513C663.125 168.15 700 257.174 700 350C700 442.826 663.125 531.85 597.487 597.487C531.85 663.125 442.826 700 350 700C257.174 700 168.15 663.125 102.513 597.487C36.8749 531.85 0 442.826 0 350C0 257.174 36.8749 168.15 102.513 102.513C168.15 36.8749 257.174 0 350 0ZM350 650C429.565 650 505.871 618.393 562.132 562.132C618.393 505.871 650 429.565 650 350C650 270.435 618.393 194.129 562.132 137.868C505.871 81.607 429.565 50 350 50C270.435 50 194.129 81.607 137.868 137.868C81.607 194.129 50 270.435 50 350C50 429.565 81.607 505.871 137.868 562.132C194.129 618.393 270.435 650 350 650ZM312.5 456.55L472.35 350L312.5 243.45V456.55ZM320.8 188.85L515.7 318.8C520.836 322.225 525.047 326.864 527.959 332.307C530.872 337.75 532.396 343.827 532.396 350C532.396 356.173 530.872 362.25 527.959 367.693C525.047 373.136 520.836 377.775 515.7 381.2L320.8 511.15C315.153 514.915 308.589 517.076 301.81 517.404C295.031 517.731 288.29 516.213 282.306 513.01C276.322 509.808 271.319 505.041 267.831 499.219C264.343 493.397 262.5 486.737 262.5 479.95V220C262.5 213.213 264.343 206.553 267.831 200.731C271.319 194.909 276.322 190.142 282.306 186.94C288.29 183.737 295.031 182.219 301.81 182.546C308.589 182.874 315.153 185.035 320.8 188.8V188.85Z" fill="#AD2828"/>
</svg>
