<svg width="20" height="20" viewBox="0 0 20 20" fill="none" xmlns="http://www.w3.org/2000/svg">
<path d="M16.219 17.3298H16.469V17.0798V15.0464C16.469 14.464 16.9412 13.9918 17.5237 13.9918C18.1061 13.9918 18.5782 14.464 18.5782 15.0464V18.3843C18.5782 18.9667 18.106 19.439 17.5237 19.439H2.47616C1.89381 19.439 1.42163 18.9667 1.42163 18.3843V15.0464C1.42163 14.464 1.89376 13.9918 2.47616 13.9918C3.05855 13.9918 3.53069 14.464 3.53069 15.0464V17.0798V17.3298H3.78069H16.219Z" fill="white" stroke="black" stroke-width="0.5"/>
<path d="M15.0661 10.0503C14.994 9.87644 14.8247 9.76312 14.6359 9.76312H12.7393H12.4893L15.0661 10.0503ZM15.0661 10.0503L14.835 10.1456C14.8687 10.2273 14.85 10.3199 14.7886 10.3813L10.2167 14.9531L10.2167 14.9531M15.0661 10.0503L14.8351 10.146C14.8018 10.0656 14.7236 10.0131 14.6359 10.0131H12.4893H12.2393V9.76312V1.32906C12.2393 0.904534 11.8957 0.560974 11.4713 0.560974H8.529C8.10466 0.560974 7.76103 0.904508 7.76103 1.32906V9.76312V10.0131H7.51103H5.36365C5.2762 10.0131 5.19798 10.0655 5.16465 10.146L4.93369 10.0503M10.2167 14.9531L5.21105 10.3813C5.14978 10.3198 5.13111 10.2272 5.16478 10.1456L4.93369 10.0503M10.2167 14.9531C10.0973 15.0725 9.90263 15.0727 9.78289 14.9531C9.78286 14.9531 9.78284 14.9531 9.78282 14.953L5.21118 10.3814L10.2167 14.9531ZM4.93369 10.0503C4.86166 10.2248 4.90127 10.4249 5.03427 10.5581L7.51103 9.51312V9.76312H7.26103H5.36365C5.17509 9.76312 5.00572 9.8764 4.93369 10.0503Z" fill="white" stroke="black" stroke-width="0.5"/>
</svg>
